<svg xmlns="http://www.w3.org/2000/svg" xmlns:xlink="http://www.w3.org/1999/xlink" x="0" y="0" width="661.3333129882812" height="245.96665954589844" style="
        width:661.3333129882812px;
        height:245.96665954589844px;
        background: transparent;
        fill: none;
">
        
        
        <svg xmlns="http://www.w3.org/2000/svg" class="role-diagram-draw-area"><g class="shapes-region" style="stroke: black; fill: none;"><g class="arrow-line"><path class="connection real" stroke-dasharray="" d="  M2,202 L417,202" style="stroke: rgb(0, 0, 0); stroke-width: 2px; fill: none; fill-opacity: 1;"/><g stroke="#000" transform="matrix(-1,1.2246467991473532e-16,-1.2246467991473532e-16,-1,420,202)" style="stroke: rgb(0, 0, 0); stroke-width: 2px;"><path d=" M14.21,-4.28 Q6.45,-0.59 0,0 Q6.45,0.59 14.21,4.28"/></g></g><g class="arrow-line"><path class="connection real" stroke-dasharray="" d="  M0,102 C50.78,96.53 79.78,89.53 110,72 C140.22,54.47 200.78,15.53 250,12 C299.22,8.47 321.38,9.65 390,52" style="stroke: rgb(0, 0, 0); stroke-width: 1px; fill: none; fill-opacity: 1;"/></g><g class="arrow-line"><path class="connection real" stroke-dasharray="1.125 3.35" d="  M250,12 C311.78,6.85 342.78,38.85 390,72" style="stroke: rgb(0, 0, 0); stroke-width: 1px; fill: none; fill-opacity: 1;"/></g><g class="arrow-line"><path class="connection real" stroke-dasharray="1.125 3.35" d="  M250,12 C311.78,6.85 342.78,13.53 390,32" style="stroke: rgb(0, 0, 0); stroke-width: 1px; fill: none; fill-opacity: 1;"/></g><g class="arrow-line"><path class="connection real" stroke-dasharray="" d="  M0,162 C26.78,169.65 51.74,178 110,182 C168.26,186 201.22,176.35 250,162 C298.78,147.65 342.78,133.65 390,132" style="stroke: rgb(0, 0, 0); stroke-width: 1px; fill: none; fill-opacity: 1;"/></g><g class="arrow-line"><path class="connection real" stroke-dasharray="1.125 3.35" d="  M250,162 C286.78,151.65 346.78,127.65 390,122" style="stroke: rgb(0, 0, 0); stroke-width: 1px; fill: none; fill-opacity: 1;"/></g><g class="arrow-line"><path class="connection real" stroke-dasharray="1.125 3.35" d="  M250,162 C289.78,147.65 358.78,140.65 390,142" style="stroke: rgb(0, 0, 0); stroke-width: 1px; fill: none; fill-opacity: 1;"/></g><g class="composite-shape"><path class="real" d=" M105,72 C105,69.24 107.24,67 110,67 C112.76,67 115,69.24 115,72 C115,74.76 112.76,77 110,77 C107.24,77 105,74.76 105,72 Z" style="stroke-width: 1px; stroke: rgb(0, 0, 0); fill: rgb(5, 193, 8); fill-opacity: 1;"/></g><g class="composite-shape"><path class="real" d=" M245,12 C245,9.24 247.24,7 250,7 C252.76,7 255,9.24 255,12 C255,14.76 252.76,17 250,17 C247.24,17 245,14.76 245,12 Z" style="stroke-width: 1px; stroke: rgb(0, 0, 0); fill: rgb(5, 193, 8); fill-opacity: 1;"/></g><g class="composite-shape"><path class="real" d=" M385,52 C385,49.24 387.24,47 390,47 C392.76,47 395,49.24 395,52 C395,54.76 392.76,57 390,57 C387.24,57 385,54.76 385,52 Z" style="stroke-width: 1px; stroke: rgb(0, 0, 0); fill: rgb(5, 193, 8); fill-opacity: 1; stroke-dasharray: 1.125px, 3.35px;"/></g><g class="composite-shape"><path class="real" d=" M385,132 C385,129.24 387.24,127 390,127 C392.76,127 395,129.24 395,132 C395,134.76 392.76,137 390,137 C387.24,137 385,134.76 385,132 Z" style="stroke-width: 1px; stroke: rgb(0, 0, 0); fill: rgb(5, 193, 8); fill-opacity: 1; stroke-dasharray: 1.125px, 3.35px;"/></g><g class="composite-shape"><path class="real" d=" M245,162 C245,159.24 247.24,157 250,157 C252.76,157 255,159.24 255,162 C255,164.76 252.76,167 250,167 C247.24,167 245,164.76 245,162 Z" style="stroke-width: 1px; stroke: rgb(0, 0, 0); fill: rgb(5, 193, 8); fill-opacity: 1;"/></g><g class="composite-shape"><path class="real" d=" M105,182 C105,179.24 107.24,177 110,177 C112.76,177 115,179.24 115,182 C115,184.76 112.76,187 110,187 C107.24,187 105,184.76 105,182 Z" style="stroke-width: 1px; stroke: rgb(0, 0, 0); fill: rgb(5, 193, 8); fill-opacity: 1;"/></g><g class="arrow-line"><path class="connection real" stroke-dasharray="" d="  M110,84 L110,170" style="stroke: rgb(245, 73, 35); stroke-opacity: 1; stroke-width: 1px; fill: none; fill-opacity: 1;"/><g stroke="rgb(245,73,35)" stroke-opacity="1" transform="matrix(-1.8369701987210297e-16,-1,1,-1.8369701987210297e-16,110,171.99999999999997)" style="stroke: rgb(245, 73, 35); stroke-width: 1px;"><path d=" M10.93,-3.29 Q4.96,-0.45 0,0 Q4.96,0.45 10.93,3.29"/></g><g stroke="rgb(245,73,35)" stroke-opacity="1" transform="matrix(6.123233995736766e-17,1,-1,6.123233995736766e-17,110,82)" style="stroke: rgb(245, 73, 35); stroke-width: 1px;"><path d=" M10.93,-3.29 Q4.96,-0.45 0,0 Q4.96,0.45 10.93,3.29"/></g></g><g class="arrow-line"><path class="connection real" stroke-dasharray="" d="  M250,24 L250,150" style="stroke: rgb(245, 73, 35); stroke-opacity: 1; stroke-width: 1px; fill: none; fill-opacity: 1;"/><g stroke="rgb(245,73,35)" stroke-opacity="1" transform="matrix(-1.8369701987210297e-16,-1,1,-1.8369701987210297e-16,250,151.99999999999997)" style="stroke: rgb(245, 73, 35); stroke-width: 1px;"><path d=" M10.93,-3.29 Q4.96,-0.45 0,0 Q4.96,0.45 10.93,3.29"/></g><g stroke="rgb(245,73,35)" stroke-opacity="1" transform="matrix(6.123233995736766e-17,1,-1,6.123233995736766e-17,250,22)" style="stroke: rgb(245, 73, 35); stroke-width: 1px;"><path d=" M10.93,-3.29 Q4.96,-0.45 0,0 Q4.96,0.45 10.93,3.29"/></g></g><g class="arrow-line"><path class="connection real" stroke-dasharray="" d="  M110,197 L110,207" style="stroke: rgb(0, 0, 0); stroke-width: 2px; fill: none; fill-opacity: 1;"/></g><g class="arrow-line"><path class="connection real" stroke-dasharray="" d="  M250,197 L250,207" style="stroke: rgb(0, 0, 0); stroke-width: 2px; fill: none; fill-opacity: 1;"/></g><g class="arrow-line"><path class="connection real" stroke-dasharray="" d="  M390,197 L390,207" style="stroke: rgb(0, 0, 0); stroke-width: 2px; fill: none; fill-opacity: 1;"/></g><g class="arrow-line"><path class="connection real" stroke-dasharray="" d="  M380,72 C361.78,90.53 376.22,111.47 390,112 C403.3,112.51 410.29,91.11 392.08,73.86" style="stroke: rgb(245, 73, 35); stroke-opacity: 1; stroke-width: 1px; fill: none; fill-opacity: 1;"/><g stroke="none" fill="rgb(245,73,35)" fill-opacity="1" transform="matrix(0.7643590058228539,0.6447909042608296,-0.6447909042608296,0.7643590058228539,390,72)" style="stroke: none; fill: rgb(245, 73, 35); stroke-width: 1px;"><path d=" M8.93,-4.29 L0,0 L8.93,4.29 Z"/></g></g><g/></g><g/><g/><g/></svg>
        <svg xmlns="http://www.w3.org/2000/svg" xmlns:xlink="http://www.w3.org/1999/xlink" width="660" height="244.63333129882812" style="width:660px;height:244.63333129882812px;font-family:LatinModern-Math, LatinModern, Asana-Math, Asana;background:transparent;"><g><g><g><g><g><g><g transform="matrix(1,0,0,1,28.6666259765625,88.53334045410156)"><path transform="matrix(0.017,0,0,-0.017,0,0)" d="M490 404C490 422 476 431 461 431C451 431 435 425 426 410C424 405 416 374 412 356L392 276L347 96C343 81 300 11 234 11C183 11 172 55 172 92C172 138 189 200 223 288C239 329 243 340 243 360C243 405 211 442 161 442C66 442 29 297 29 288C29 278 41 278 41 278C51 278 52 280 57 296C84 390 124 420 158 420C166 420 183 420 183 388C183 363 173 337 166 318C126 212 108 155 108 108C108 19 171 -11 230 -11C269 -11 303 6 331 34C318 -18 306 -67 266 -120C240 -154 202 -183 156 -183C142 -183 97 -180 80 -141C96 -141 109 -141 123 -129C133 -120 143 -107 143 -88C143 -57 116 -53 106 -53C83 -53 50 -69 50 -118C50 -168 94 -205 156 -205C259 -205 362 -114 390 -1L486 381C490 395 490 397 490 404Z" stroke="rgb(0,0,0)" stroke-opacity="1" stroke-width="8" fill="rgb(0,0,0)" fill-opacity="1"></path></g></g><g><g><g><g><g transform="matrix(1,0,0,1,37.51666259765625,91.66667785644532)"><path transform="matrix(0.0119,0,0,-0.0119,0,0)" d="M419 0L419 31L387 31C297 31 294 42 294 79L294 640C294 664 294 666 271 666C209 602 121 602 89 602L89 571C109 571 168 571 220 597L220 79C220 43 217 31 127 31L95 31L95 0C130 3 217 3 257 3C297 3 384 3 419 0Z" stroke="rgb(0,0,0)" stroke-opacity="1" stroke-width="8" fill="rgb(0,0,0)" fill-opacity="1"></path></g></g></g></g></g></g></g></g></g></g><g><g><g><g><g><g><g transform="matrix(1,0,0,1,28.6666259765625,162.53334045410156)"><path transform="matrix(0.017,0,0,-0.017,0,0)" d="M490 404C490 422 476 431 461 431C451 431 435 425 426 410C424 405 416 374 412 356L392 276L347 96C343 81 300 11 234 11C183 11 172 55 172 92C172 138 189 200 223 288C239 329 243 340 243 360C243 405 211 442 161 442C66 442 29 297 29 288C29 278 41 278 41 278C51 278 52 280 57 296C84 390 124 420 158 420C166 420 183 420 183 388C183 363 173 337 166 318C126 212 108 155 108 108C108 19 171 -11 230 -11C269 -11 303 6 331 34C318 -18 306 -67 266 -120C240 -154 202 -183 156 -183C142 -183 97 -180 80 -141C96 -141 109 -141 123 -129C133 -120 143 -107 143 -88C143 -57 116 -53 106 -53C83 -53 50 -69 50 -118C50 -168 94 -205 156 -205C259 -205 362 -114 390 -1L486 381C490 395 490 397 490 404Z" stroke="rgb(0,0,0)" stroke-opacity="1" stroke-width="8" fill="rgb(0,0,0)" fill-opacity="1"></path></g></g><g><g><g><g><g transform="matrix(1,0,0,1,37.51666259765625,165.66667785644532)"><path transform="matrix(0.0119,0,0,-0.0119,0,0)" d="M449 174L424 174C419 144 412 100 402 85C395 77 329 77 307 77L127 77L233 180C389 318 449 372 449 472C449 586 359 666 237 666C124 666 50 574 50 485C50 429 100 429 103 429C120 429 155 441 155 482C155 508 137 534 102 534C94 534 92 534 89 533C112 598 166 635 224 635C315 635 358 554 358 472C358 392 308 313 253 251L61 37C50 26 50 24 50 0L421 0Z" stroke="rgb(0,0,0)" stroke-opacity="1" stroke-width="8" fill="rgb(0,0,0)" fill-opacity="1"></path></g></g></g></g></g></g></g></g></g></g><g><g><g><g><g><g><g transform="matrix(1,0,0,1,429.6666259765625,206.53334045410156)"><path transform="matrix(0.017,0,0,-0.017,0,0)" d="M330 420C330 431 320 431 302 431L214 431C250 573 255 593 255 599C255 616 243 626 226 626C223 626 195 625 186 590L147 431L53 431C33 431 23 431 23 412C23 400 31 400 51 400L139 400C67 116 63 99 63 81C63 27 101 -11 155 -11C257 -11 314 135 314 143C314 153 306 153 302 153C293 153 292 150 287 139C244 35 191 11 157 11C136 11 126 24 126 57C126 81 128 88 132 105L206 400L300 400C320 400 330 400 330 420Z" stroke="rgb(0,0,0)" stroke-opacity="1" stroke-width="8" fill="rgb(0,0,0)" fill-opacity="1"></path></g></g></g></g></g></g></g><g><g><g><g><g><g><g transform="matrix(1,0,0,1,93.6666259765625,228.53334045410156)"><path transform="matrix(0.017,0,0,-0.017,0,0)" d="M330 420C330 431 320 431 302 431L214 431C250 573 255 593 255 599C255 616 243 626 226 626C223 626 195 625 186 590L147 431L53 431C33 431 23 431 23 412C23 400 31 400 51 400L139 400C67 116 63 99 63 81C63 27 101 -11 155 -11C257 -11 314 135 314 143C314 153 306 153 302 153C293 153 292 150 287 139C244 35 191 11 157 11C136 11 126 24 126 57C126 81 128 88 132 105L206 400L300 400C320 400 330 400 330 420Z" stroke="rgb(0,0,0)" stroke-opacity="1" stroke-width="8" fill="rgb(0,0,0)" fill-opacity="1"></path></g></g><g><g><g><g><g transform="matrix(1,0,0,1,100.316650390625,231.66667785644532)"><path transform="matrix(0.0119,0,0,-0.0119,0,0)" d="" stroke="rgb(0,0,0)" stroke-opacity="1" stroke-width="8" fill="rgb(0,0,0)" fill-opacity="1"></path></g></g></g></g></g><g><g><g><g><g transform="matrix(1,0,0,1,101.8499755859375,231.48335876464844)"><path transform="matrix(0.0119,0,0,-0.0119,0,0)" d="M571 143C571 153 562 153 559 153C549 153 549 150 544 135C524 67 491 11 442 11C425 11 418 21 418 44C418 69 427 93 436 115C455 168 497 278 497 335C497 402 454 442 382 442C292 442 243 378 226 355C221 411 180 442 134 442C88 442 69 403 59 385C43 351 29 292 29 288C29 278 41 278 41 278C51 278 52 279 58 301C75 372 95 420 131 420C151 420 162 407 162 374C162 353 159 342 146 290L88 59C85 44 79 21 79 16C79 -2 93 -11 108 -11C120 -11 138 -3 145 17C146 19 158 66 164 91L186 181C192 203 198 225 203 248L216 298C231 329 284 420 379 420C424 420 433 383 433 350C433 288 384 160 368 117C359 94 358 82 358 71C358 24 393 -11 440 -11C534 -11 571 135 571 143ZM1322 250C1322 261 1313 270 1302 270L676 270C665 270 656 261 656 250C656 239 665 230 676 230L1302 230C1313 230 1322 239 1322 250ZM1797 0L1797 31L1765 31C1675 31 1672 42 1672 79L1672 640C1672 664 1672 666 1649 666C1587 602 1499 602 1467 602L1467 571C1487 571 1546 571 1598 597L1598 79C1598 43 1595 31 1505 31L1473 31L1473 0C1508 3 1595 3 1635 3C1675 3 1762 3 1797 0Z" stroke="rgb(0,0,0)" stroke-opacity="1" stroke-width="8" fill="rgb(0,0,0)" fill-opacity="1"></path></g></g></g></g></g></g></g></g></g></g><g><g><g><g><g><g><g transform="matrix(1,0,0,1,241.6666259765625,228.53334045410156)"><path transform="matrix(0.017,0,0,-0.017,0,0)" d="M330 420C330 431 320 431 302 431L214 431C250 573 255 593 255 599C255 616 243 626 226 626C223 626 195 625 186 590L147 431L53 431C33 431 23 431 23 412C23 400 31 400 51 400L139 400C67 116 63 99 63 81C63 27 101 -11 155 -11C257 -11 314 135 314 143C314 153 306 153 302 153C293 153 292 150 287 139C244 35 191 11 157 11C136 11 126 24 126 57C126 81 128 88 132 105L206 400L300 400C320 400 330 400 330 420Z" stroke="rgb(0,0,0)" stroke-opacity="1" stroke-width="8" fill="rgb(0,0,0)" fill-opacity="1"></path></g></g><g><g><g><g><g transform="matrix(1,0,0,1,248.316650390625,231.66667785644532)"><path transform="matrix(0.0119,0,0,-0.0119,0,0)" d="" stroke="rgb(0,0,0)" stroke-opacity="1" stroke-width="8" fill="rgb(0,0,0)" fill-opacity="1"></path></g></g></g></g></g><g><g><g><g><g transform="matrix(1,0,0,1,249.8499755859375,231.66667785644532)"><path transform="matrix(0.0119,0,0,-0.0119,0,0)" d="M571 143C571 153 562 153 559 153C549 153 549 150 544 135C524 67 491 11 442 11C425 11 418 21 418 44C418 69 427 93 436 115C455 168 497 278 497 335C497 402 454 442 382 442C292 442 243 378 226 355C221 411 180 442 134 442C88 442 69 403 59 385C43 351 29 292 29 288C29 278 41 278 41 278C51 278 52 279 58 301C75 372 95 420 131 420C151 420 162 407 162 374C162 353 159 342 146 290L88 59C85 44 79 21 79 16C79 -2 93 -11 108 -11C120 -11 138 -3 145 17C146 19 158 66 164 91L186 181C192 203 198 225 203 248L216 298C231 329 284 420 379 420C424 420 433 383 433 350C433 288 384 160 368 117C359 94 358 82 358 71C358 24 393 -11 440 -11C534 -11 571 135 571 143Z" stroke="rgb(0,0,0)" stroke-opacity="1" stroke-width="8" fill="rgb(0,0,0)" fill-opacity="1"></path></g></g></g></g></g></g></g></g></g></g><g><g><g><g><g><g><g transform="matrix(1,0,0,1,375.6666259765625,228.53334045410156)"><path transform="matrix(0.017,0,0,-0.017,0,0)" d="M330 420C330 431 320 431 302 431L214 431C250 573 255 593 255 599C255 616 243 626 226 626C223 626 195 625 186 590L147 431L53 431C33 431 23 431 23 412C23 400 31 400 51 400L139 400C67 116 63 99 63 81C63 27 101 -11 155 -11C257 -11 314 135 314 143C314 153 306 153 302 153C293 153 292 150 287 139C244 35 191 11 157 11C136 11 126 24 126 57C126 81 128 88 132 105L206 400L300 400C320 400 330 400 330 420Z" stroke="rgb(0,0,0)" stroke-opacity="1" stroke-width="8" fill="rgb(0,0,0)" fill-opacity="1"></path></g></g><g><g><g><g><g transform="matrix(1,0,0,1,382.316650390625,231.66667785644532)"><path transform="matrix(0.0119,0,0,-0.0119,0,0)" d="" stroke="rgb(0,0,0)" stroke-opacity="1" stroke-width="8" fill="rgb(0,0,0)" fill-opacity="1"></path></g></g></g></g></g><g><g><g><g><g transform="matrix(1,0,0,1,383.8499755859375,231.48335876464844)"><path transform="matrix(0.0119,0,0,-0.0119,0,0)" d="M571 143C571 153 562 153 559 153C549 153 549 150 544 135C524 67 491 11 442 11C425 11 418 21 418 44C418 69 427 93 436 115C455 168 497 278 497 335C497 402 454 442 382 442C292 442 243 378 226 355C221 411 180 442 134 442C88 442 69 403 59 385C43 351 29 292 29 288C29 278 41 278 41 278C51 278 52 279 58 301C75 372 95 420 131 420C151 420 162 407 162 374C162 353 159 342 146 290L88 59C85 44 79 21 79 16C79 -2 93 -11 108 -11C120 -11 138 -3 145 17C146 19 158 66 164 91L186 181C192 203 198 225 203 248L216 298C231 329 284 420 379 420C424 420 433 383 433 350C433 288 384 160 368 117C359 94 358 82 358 71C358 24 393 -11 440 -11C534 -11 571 135 571 143ZM1322 250C1322 261 1313 270 1302 270L1009 270L1009 563C1009 574 1000 583 989 583C978 583 969 574 969 563L969 270L676 270C665 270 656 261 656 250C656 239 665 230 676 230L969 230L969 -63C969 -74 978 -83 989 -83C1000 -83 1009 -74 1009 -63L1009 230L1302 230C1313 230 1322 239 1322 250ZM1797 0L1797 31L1765 31C1675 31 1672 42 1672 79L1672 640C1672 664 1672 666 1649 666C1587 602 1499 602 1467 602L1467 571C1487 571 1546 571 1598 597L1598 79C1598 43 1595 31 1505 31L1473 31L1473 0C1508 3 1595 3 1635 3C1675 3 1762 3 1797 0Z" stroke="rgb(0,0,0)" stroke-opacity="1" stroke-width="8" fill="rgb(0,0,0)" fill-opacity="1"></path></g></g></g></g></g></g></g></g></g></g><g><g><g><g transform="matrix(1,0,0,1,406.6666259765625,97.78333435058593)"><path transform="matrix(0.0136,0,0,-0.0136,0,0)" d="M490 404C490 422 476 431 461 431C451 431 435 425 426 410C424 405 416 374 412 356L392 276L347 96C343 81 300 11 234 11C183 11 172 55 172 92C172 138 189 200 223 288C239 329 243 340 243 360C243 405 211 442 161 442C66 442 29 297 29 288C29 278 41 278 41 278C51 278 52 280 57 296C84 390 124 420 158 420C166 420 183 420 183 388C183 363 173 337 166 318C126 212 108 155 108 108C108 19 171 -11 230 -11C269 -11 303 6 331 34C318 -18 306 -67 266 -120C240 -154 202 -183 156 -183C142 -183 97 -180 80 -141C96 -141 109 -141 123 -129C133 -120 143 -107 143 -88C143 -57 116 -53 106 -53C83 -53 50 -69 50 -118C50 -168 94 -205 156 -205C259 -205 362 -114 390 -1L486 381C490 395 490 397 490 404Z" stroke="rgb(0,0,0)" stroke-opacity="1" stroke-width="8" fill="rgb(0,0,0)" fill-opacity="1"></path></g></g><g><g><g><g><g transform="matrix(1,0,0,1,414.11663818359375,91.60334350585937)"><path transform="matrix(0.009519999999999999,0,0,-0.009519999999999999,0,0)" d="M571 143C571 153 562 153 559 153C549 153 549 150 544 135C524 67 491 11 442 11C425 11 418 21 418 44C418 69 427 93 436 115C455 168 497 278 497 335C497 402 454 442 382 442C292 442 243 378 226 355C221 411 180 442 134 442C88 442 69 403 59 385C43 351 29 292 29 288C29 278 41 278 41 278C51 278 52 279 58 301C75 372 95 420 131 420C151 420 162 407 162 374C162 353 159 342 146 290L88 59C85 44 79 21 79 16C79 -2 93 -11 108 -11C120 -11 138 -3 145 17C146 19 158 66 164 91L186 181C192 203 198 225 203 248L216 298C231 329 284 420 379 420C424 420 433 383 433 350C433 288 384 160 368 117C359 94 358 82 358 71C358 24 393 -11 440 -11C534 -11 571 135 571 143ZM1322 250C1322 261 1313 270 1302 270L1009 270L1009 563C1009 574 1000 583 989 583C978 583 969 574 969 563L969 270L676 270C665 270 656 261 656 250C656 239 665 230 676 230L969 230L969 -63C969 -74 978 -83 989 -83C1000 -83 1009 -74 1009 -63L1009 230L1302 230C1313 230 1322 239 1322 250ZM1797 0L1797 31L1765 31C1675 31 1672 42 1672 79L1672 640C1672 664 1672 666 1649 666C1587 602 1499 602 1467 602L1467 571C1487 571 1546 571 1598 597L1598 79C1598 43 1595 31 1505 31L1473 31L1473 0C1508 3 1595 3 1635 3C1675 3 1762 3 1797 0Z" stroke="rgb(0,0,0)" stroke-opacity="1" stroke-width="8" fill="rgb(0,0,0)" fill-opacity="1"></path></g></g></g></g><g><g></g></g></g><g><g transform="matrix(1,0,0,1,436.88330078125,97.78333435058593)"><path transform="matrix(0.0136,0,0,-0.0136,0,0)" d="M722 347C722 358 713 367 702 367L76 367C65 367 56 358 56 347C56 336 65 327 76 327L702 327C713 327 722 336 722 347ZM722 153C722 164 713 173 702 173L76 173C65 173 56 164 56 153C56 142 65 133 76 133L702 133C713 133 722 142 722 153Z" stroke="rgb(0,0,0)" stroke-opacity="1" stroke-width="8" fill="rgb(0,0,0)" fill-opacity="1"></path></g></g><g><g transform="matrix(1,0,0,1,451.54998779296875,97.78333435058593)"><path transform="matrix(0.0136,0,0,-0.0136,0,0)" d="M474 395C474 412 462 422 445 422C435 422 408 415 404 379C386 416 351 442 311 442C197 442 73 302 73 158C73 59 134 0 206 0C265 0 312 47 322 58L323 57L290 -75C286 -84 252 -183 146 -183C127 -183 94 -182 66 -173C96 -164 107 -138 107 -121C107 -105 96 -86 69 -86C47 -86 15 -104 15 -144C15 -185 52 -205 148 -205C273 -205 345 -127 360 -67L471 377C472 383 474 388 474 395ZM392 334C392 329 390 323 389 319L341 128C335 102 312 77 290 58C269 40 238 22 209 22C159 22 144 74 144 114C144 162 173 280 200 331C227 380 270 420 312 420C378 420 392 339 392 334Z" stroke="rgb(0,0,0)" stroke-opacity="1" stroke-width="8" fill="rgb(0,0,0)" fill-opacity="1"></path></g></g><g><svg x="458.98333740234375" overflow="visible" y="83.03334045410156" height="21" width="6.8000030517578125"><path d=" M 5.70 1.51 c 0.00 -0.09 -0.10 -0.15 -0.21 -0.15 c -0.05 0.00 -0.09 0.01 -0.12 0.03 c -2.73 1.46 -4.31 5.47 -4.31 9.04 v 0.07 h 1.16 v -0.07 c 0.00 -3.42 0.92 -7.39 3.52 -8.80 c 0.06 -0.02 0.09 -0.07 0.09 -0.12 z   M 1.02 10.50 v 0.00 h 1.16 v 0.00 z" style="fill:rgb(0,0,0);fill-opacity:1;stroke-width:1px;stroke:none;stroke-opacity:1;"></path><path d=" M 5.70 19.49 c 0.00 0.09 -0.10 0.15 -0.21 0.15 c -0.05 0.00 -0.09 -0.01 -0.12 -0.03 c -2.73 -1.46 -4.31 -5.47 -4.31 -9.04 v -0.07 h 1.16 v 0.07 c 0.00 3.42 0.92 7.39 3.52 8.80 c 0.06 0.02 0.09 0.07 0.09 0.12 z" style="fill:rgb(0,0,0);fill-opacity:1;stroke-width:1px;stroke:none;stroke-opacity:1;"></path></svg></g><g><g transform="matrix(1,0,0,1,464.4166259765625,97.78333435058593)"><path transform="matrix(0.0136,0,0,-0.0136,0,0)" d="M490 404C490 422 476 431 461 431C451 431 435 425 426 410C424 405 416 374 412 356L392 276L347 96C343 81 300 11 234 11C183 11 172 55 172 92C172 138 189 200 223 288C239 329 243 340 243 360C243 405 211 442 161 442C66 442 29 297 29 288C29 278 41 278 41 278C51 278 52 280 57 296C84 390 124 420 158 420C166 420 183 420 183 388C183 363 173 337 166 318C126 212 108 155 108 108C108 19 171 -11 230 -11C269 -11 303 6 331 34C318 -18 306 -67 266 -120C240 -154 202 -183 156 -183C142 -183 97 -180 80 -141C96 -141 109 -141 123 -129C133 -120 143 -107 143 -88C143 -57 116 -53 106 -53C83 -53 50 -69 50 -118C50 -168 94 -205 156 -205C259 -205 362 -114 390 -1L486 381C490 395 490 397 490 404Z" stroke="rgb(0,0,0)" stroke-opacity="1" stroke-width="8" fill="rgb(0,0,0)" fill-opacity="1"></path></g></g><g><g><g><g><g transform="matrix(1,0,0,1,471.86663818359375,91.60334350585937)"><path transform="matrix(0.009519999999999999,0,0,-0.009519999999999999,0,0)" d="M571 143C571 153 562 153 559 153C549 153 549 150 544 135C524 67 491 11 442 11C425 11 418 21 418 44C418 69 427 93 436 115C455 168 497 278 497 335C497 402 454 442 382 442C292 442 243 378 226 355C221 411 180 442 134 442C88 442 69 403 59 385C43 351 29 292 29 288C29 278 41 278 41 278C51 278 52 279 58 301C75 372 95 420 131 420C151 420 162 407 162 374C162 353 159 342 146 290L88 59C85 44 79 21 79 16C79 -2 93 -11 108 -11C120 -11 138 -3 145 17C146 19 158 66 164 91L186 181C192 203 198 225 203 248L216 298C231 329 284 420 379 420C424 420 433 383 433 350C433 288 384 160 368 117C359 94 358 82 358 71C358 24 393 -11 440 -11C534 -11 571 135 571 143ZM1322 250C1322 261 1313 270 1302 270L1009 270L1009 563C1009 574 1000 583 989 583C978 583 969 574 969 563L969 270L676 270C665 270 656 261 656 250C656 239 665 230 676 230L969 230L969 -63C969 -74 978 -83 989 -83C1000 -83 1009 -74 1009 -63L1009 230L1302 230C1313 230 1322 239 1322 250ZM1797 0L1797 31L1765 31C1675 31 1672 42 1672 79L1672 640C1672 664 1672 666 1649 666C1587 602 1499 602 1467 602L1467 571C1487 571 1546 571 1598 597L1598 79C1598 43 1595 31 1505 31L1473 31L1473 0C1508 3 1595 3 1635 3C1675 3 1762 3 1797 0Z" stroke="rgb(0,0,0)" stroke-opacity="1" stroke-width="8" fill="rgb(0,0,0)" fill-opacity="1"></path></g></g></g></g><g><g></g></g></g><g><g transform="matrix(1,0,0,1,493.26666259765625,97.78333435058593)"><path transform="matrix(0.0136,0,0,-0.0136,0,0)" d="M722 250C722 261 713 270 702 270L409 270L409 563C409 574 400 583 389 583C378 583 369 574 369 563L369 270L76 270C65 270 56 261 56 250C56 239 65 230 76 230L369 230L369 -63C369 -74 378 -83 389 -83C400 -83 409 -74 409 -63L409 230L702 230C713 230 722 239 722 250Z" stroke="rgb(0,0,0)" stroke-opacity="1" stroke-width="8" fill="rgb(0,0,0)" fill-opacity="1"></path></g></g><g><g transform="matrix(1,0,0,1,506.566650390625,97.78333435058593)"><path transform="matrix(0.0136,0,0,-0.0136,0,0)" d="M490 282C490 376 433 442 357 442C307 442 259 406 226 367C216 421 173 442 136 442C90 442 71 403 62 385C44 351 31 291 31 288C31 278 43 278 43 278C53 278 54 279 60 301C77 372 97 420 133 420C150 420 164 412 164 374C164 351 161 340 157 323L45 -122C37 -156 35 -163 -9 -163C-21 -163 -32 -163 -32 -182C-32 -190 -27 -194 -19 -194C8 -194 37 -191 65 -191C98 -191 132 -194 164 -194C169 -194 182 -194 182 -174C182 -163 172 -163 158 -163C108 -163 108 -156 108 -147C108 -135 150 28 157 53C170 24 198 -11 249 -11C365 -11 490 135 490 282ZM418 326C418 267 385 152 367 114C333 44 285 11 248 11C182 11 169 94 169 100C169 100 169 104 172 116L221 312C228 339 255 367 273 382C308 413 337 420 354 420C394 420 418 385 418 326ZM1001 143C1001 153 992 153 989 153C979 153 978 149 975 135C958 70 940 11 899 11C872 11 869 37 869 57C869 79 871 87 882 131L904 221L940 361C947 389 947 391 947 395C947 412 935 422 918 422C894 422 879 400 876 378C858 415 829 442 784 442C667 442 543 295 543 149C543 55 598 -11 676 -11C696 -11 746 -7 806 64C814 22 849 -11 897 -11C932 -11 955 12 971 44C988 80 1001 143 1001 143ZM864 332C864 326 862 320 861 315L811 119C806 101 806 99 791 82C747 27 706 11 678 11C628 11 614 66 614 105C614 155 646 278 669 324C700 383 745 420 785 420C850 420 864 338 864 332ZM1452 356C1452 401 1409 442 1333 442C1201 442 1164 340 1164 296C1164 218 1238 203 1267 197C1319 187 1371 176 1371 121C1371 95 1348 11 1228 11C1214 11 1137 11 1114 64C1152 59 1177 89 1177 117C1177 140 1161 152 1140 152C1114 152 1084 131 1084 86C1084 29 1141 -11 1227 -11C1389 -11 1428 110 1428 155C1428 191 1409 216 1397 228C1370 256 1341 261 1297 270C1261 278 1221 285 1221 330C1221 359 1245 420 1333 420C1358 420 1408 413 1423 374C1395 373 1375 351 1375 329C1375 315 1384 300 1406 300C1428 300 1452 317 1452 356ZM1831 420C1831 431 1821 431 1803 431L1715 431C1751 573 1756 593 1756 599C1756 616 1744 626 1727 626C1724 626 1696 625 1687 590L1648 431L1554 431C1534 431 1524 431 1524 412C1524 400 1532 400 1552 400L1640 400C1568 116 1564 99 1564 81C1564 27 1602 -11 1656 -11C1758 -11 1815 135 1815 143C1815 153 1807 153 1803 153C1794 153 1793 150 1788 139C1745 35 1692 11 1658 11C1637 11 1627 24 1627 57C1627 81 1629 88 1633 105L1707 400L1801 400C1821 400 1831 400 1831 420Z" stroke="rgb(0,0,0)" stroke-opacity="1" stroke-width="8" fill="rgb(0,0,0)" fill-opacity="1"></path></g></g><g><svg x="530.5333251953125" overflow="visible" y="83.03334045410156" height="21" width="6.8000030517578125"><path d=" M 1.05 1.51 c 0.00 -0.09 0.10 -0.15 0.21 -0.15 c 0.05 0.00 0.09 0.01 0.12 0.03 c 2.73 1.46 4.31 5.47 4.31 9.04 v 0.07 h -1.16 v -0.07 c 0.00 -3.42 -0.92 -7.39 -3.52 -8.80 c -0.06 -0.02 -0.09 -0.07 -0.09 -0.12 z  M 5.73 10.50 v 0.00 h -1.16 v 0.00 z" style="fill:rgb(0,0,0);fill-opacity:1;stroke-width:1px;stroke:none;stroke-opacity:1;"></path><path d=" M 1.05 19.49 c 0.00 0.09 0.10 0.15 0.21 0.15 c 0.05 0.00 0.09 -0.01 0.12 -0.03 c 2.73 -1.46 4.31 -5.47 4.31 -9.04 v -0.07 h -1.16 v 0.07 c 0.00 3.42 -0.92 7.39 -3.52 8.80 c -0.06 0.02 -0.09 0.07 -0.09 0.12 z" style="fill:rgb(0,0,0);fill-opacity:1;stroke-width:1px;stroke:none;stroke-opacity:1;"></path></svg></g></g></g></svg>
</svg>
